<?xml version="1.0" encoding="utf-8"?>
<!-- Generator: Adobe Illustrator 27.8.1, SVG Export Plug-In . SVG Version: 6.00 Build 0)  -->
<svg version="1.1" id="Layer_1" xmlns="http://www.w3.org/2000/svg" xmlns:xlink="http://www.w3.org/1999/xlink" x="0px" y="0px"
	 viewBox="0 0 1459.29 259" style="enable-background:new 0 0 1459.29 259;" xml:space="preserve">
<path d="M132.25,71.4c-7.35-10.44-15.72-18.77-29.27-19.11c-8.08-0.2-18.69,4.3-23.3,9.82c1.41,0.3,2.58,0.58,3.76,0.81
	c10.48,1.96,20.11,5.8,28.49,12.59c19.49,15.78,22.3,44.68,6.14,63.77c-8.18,9.66-18.77,15.31-30.97,17.82
	c-6.26,1.29-12.71,1.85-19.1,2.24c-9.79,0.59-19.5,1.66-29.03,3.92c-3.15,0.75-6.16,2.21-9.09,3.62c-1.55,0.75-2.77,2.17-2.3,4.18
	c0.46,1.93,2.12,2.59,3.77,2.6c3.55,0,7.18,0.13,10.63-0.55c9.03-1.8,17.99-3.94,26.94-6.07c9.6-2.29,19.26-4.3,29.15-4.48
	c21.2-0.38,37.6,14.51,39.36,33.36c1.64,17.56-5.82,30.73-20.79,39.68c-10.39,6.21-21.73,8.26-33.61,5.95
	c-9.48-1.84-17.02-6.69-20.63-16.15c-3.36-8.79-1.88-16.96,3.84-24.39c0.38-0.5,0.8-0.97,1.05-1.88c-0.69,0.16-1.4,0.25-2.07,0.48
	c-7.03,2.36-14.29,3.53-21.65,3.86c-7.61,0.34-14.77-1.37-20.96-6.09c-10.05-7.66-9.94-21.61,0.12-29.2
	c6.88-5.19,14.87-7.43,23.09-9.15c1.33-0.28,2.66-0.52,3.99-0.8c0.19-0.04,0.37-0.19,1-0.53c-1.32-0.39-2.28-0.7-3.26-0.95
	c-8.68-2.26-16.69-5.86-23.57-11.73c-8.84-7.55-14.4-17.11-15.71-28.61C5.99,96.36,14.5,81.35,31.27,70.83
	c8.38-5.26,17.77-7.75,27.56-8.61c4.26-0.38,8.55-0.48,12.83-0.43c2.66,0.03,4.77-0.69,6.84-2.38c7.94-6.48,16.8-11.18,27.11-12.36
	c7.74-0.88,15.42-0.78,22.35,3.72c2.99,1.94,4.75,4.3,4.48,8.1c-0.25,3.41-0.05,6.85-0.06,10.28
	C132.36,69.9,132.29,70.65,132.25,71.4z M94.72,110.73c0.22-11.41-1.57-22.15-6.63-32.2c-2.31-4.6-5.48-8.52-9.79-11.41
	c-2.62-1.75-3.56-1.55-5.73,0.73c-9.96,10.46-17.69,22.36-22.86,35.85c-3.47,9.06-5.88,18.37-4.69,28.21
	c1.25,10.3,6.65,17.87,15.63,22.92c5.08,2.86,10.28,2.5,15.43,0.18c5.53-2.5,9.23-6.94,11.87-12.19
	C93.06,132.67,95.03,121.8,94.72,110.73z M94.07,193.24c-7.6-0.01-13.89,1.48-19.74,4.86c-13.73,7.93-15.02,26.77-2.07,35.56
	c11.98,8.13,24.91,8.75,37.78,2.22c14.5-7.36,14.29-27.29,4.23-35.63C108.15,195.17,100.95,193.32,94.07,193.24z M42.2,121.89
	c3.32-22.46,14.11-40.92,29.88-57.31c-4.71-0.67-8.79-0.52-12.62,1.62c-6.14,3.44-9.97,8.87-12.63,15.17
	c-5.06,11.98-5.92,24.58-5.05,37.38C41.85,119.81,42.06,120.85,42.2,121.89z"/>
<path d="M538.32,200.44c-3.22,0.85-6.42,1.84-9.68,2.53c-7.43,1.58-14.94,2.68-22.52,1.31c-8.23-1.49-15.16-5-18.88-13.09
	c-3.28-7.12-1.12-15.77,4.99-20.7c7.25-5.86,15.84-8.3,24.7-10.17c1.26-0.26,2.52-0.48,3.78-0.73c0.12-0.02,0.21-0.17,0.58-0.5
	c-1.3-0.34-2.43-0.63-3.54-0.94c-12.93-3.53-24.11-9.78-31.68-21.2c-12.02-18.13-9.85-41.13,5.38-56.68
	c8.36-8.53,18.82-13.3,30.46-15.49c7.16-1.34,14.39-1.97,21.72-1.53c1.49,0.09,3.32-0.83,4.55-1.83c6.92-5.62,14.51-9.9,23.19-12.04
	c6.82-1.68,13.76-2.18,20.52,0c3.12,1.01,6,2.9,8.84,4.63c1.64,1,2.4,2.7,2.36,4.77c-0.08,4.21-0.01,8.43-0.03,12.64
	c0,0.6-0.13,1.2-0.27,2.33c-7.37-11.6-16.22-20.28-30.5-20.08c-8.49,0.12-15.53,4.23-22.55,9.77c1.58,0.37,2.61,0.66,3.66,0.84
	c11.26,1.96,21.6,6.02,30.24,13.69c7.7,6.85,12.64,15.34,14.72,25.5c3.91,19.08-5.87,39.46-24.68,49.27
	c-10.26,5.35-21.17,7.51-32.57,7.95c-11.44,0.44-22.8,1.59-33.87,4.65c-2.5,0.69-4.86,2.01-7.15,3.29c-1.47,0.82-2.58,2.25-2.03,4.1
	c0.55,1.82,2.22,2.47,3.91,2.44c3.56-0.05,7.2,0.09,10.65-0.61c9.86-2,19.65-4.38,29.46-6.63c9.34-2.14,18.71-3.88,28.37-3.82
	c27.39,0.16,45.58,27.76,34.73,52.89c-6.75,15.62-19.43,23.4-35.57,26.28c-7.35,1.31-14.64,0.72-21.72-1.92
	c-12.16-4.53-18.83-16.41-16.04-28.91C532.86,207.9,535.21,204.04,538.32,200.44z M565.46,112.78c-0.1-11-1.53-21.05-5.75-30.55
	c-2.6-5.85-6.2-10.89-11.85-14.24c-1.39-0.83-2.46-0.8-3.58,0.43c-2.31,2.53-4.86,4.85-6.99,7.52
	c-10.55,13.17-18.33,27.71-21.3,44.52c-2.18,12.35-0.07,23.36,9.76,32.18c7.75,6.97,18.33,7.41,25.78,0.72
	c3.46-3.11,6-6.88,7.93-11.05C563.9,132.72,565.31,122.53,565.46,112.78z M591.97,217.98c-0.19-7.73-3.14-14.09-9.82-18.19
	c-10.34-6.36-21.32-6.5-32.5-2.5c-5.68,2.03-10.39,5.5-13.28,10.88c-5.42,10.06-2.22,21.84,7.75,27.97
	c10.18,6.25,21.18,7.06,32.3,3.14C586.61,235.68,591.94,227.94,591.97,217.98z M512.68,123.14c0.23,0.04,0.46,0.08,0.69,0.12
	c1.12-10.95,4.7-21.11,9.68-30.81c4.99-9.74,11.88-18.11,19.25-26.09c-0.45-0.38-0.54-0.5-0.66-0.56c-0.19-0.08-0.41-0.16-0.61-0.17
	c-5.62-0.29-10.74,0.9-15.05,4.82c-4.06,3.68-6.86,8.16-8.94,13.17c-4.05,9.74-5.08,20-5.12,30.4
	C511.9,117.06,512.41,120.1,512.68,123.14z"/>
<path d="M893.59,87.64c1.48-1.18,2.62-2.09,3.75-3.02c6.41-5.26,12.85-10.54,20.7-13.54c17.01-6.51,32.95-4.29,47.15,7.06
	c11.79,9.43,17.66,22.46,19.75,37.12c1.75,12.24,0.78,24.39-3.37,36.14c-6.61,18.74-19.1,31.88-37.72,38.96
	c-12.45,4.73-25.32,6.14-38.5,3.84c-2.59-0.45-5.12-1.29-7.62-2.14c-4.25-1.44-4.31-1.45-4.31,2.95c0,14.78,0,29.57,0,44.35
	c0,0.79-0.01,1.57-0.04,2.36c-0.04,1.27-0.65,2.04-1.96,2.06c-6.94,0.08-13.84,0.11-20.3-3.13c-4.39-2.2-6.8-5.78-7.86-10.36
	c-0.46-2-0.63-4.1-0.63-6.16c-0.03-49.99-0.03-99.99-0.02-149.98c0-3.62,0.23-3.82,3.93-3.85c6.1-0.05,12.11,0.25,17.79,2.91
	c4.99,2.33,7.45,6.42,8.58,11.56C893.09,85.57,893.29,86.37,893.59,87.64z M893.43,134.37c0,13.21-0.05,26.42,0.02,39.64
	c0.04,8.85,5.74,16.06,14.21,18.1c6.99,1.69,13.69,0.66,19.86-2.89c7.93-4.56,13.08-11.63,16.54-19.91
	c6.7-16.08,8.92-32.87,7.16-50.16c-0.98-9.66-3.32-18.94-8.27-27.48c-8.77-15.15-23.95-18.9-38.47-9.22
	c-2.9,1.93-5.48,4.33-8.28,6.42c-2,1.49-2.83,3.32-2.81,5.86C893.48,107.94,893.43,121.16,893.43,134.37z"/>
<path d="M382.19,81.52c2.15-1.71,3.98-3.16,5.81-4.6c10.07-7.93,21.23-13.45,34.09-14.89c8.39-0.94,16.69-0.28,24.62,2.98
	c9.52,3.91,14.78,11.38,17.14,21.05c0.79,3.23,1.21,6.63,1.22,9.95c0.09,28.78,0.06,57.55,0.06,86.33c0,3.93-0.15,4.26-4.12,4.01
	c-4.68-0.29-9.45-0.5-13.97-1.6c-7.89-1.92-12.13-7.36-12.28-15.48c-0.29-15.56-0.33-31.12-0.43-46.68
	c-0.05-8.71,0.01-17.42-0.03-26.14c-0.02-5.05-0.98-9.92-2.92-14.61c-3.79-9.17-13.1-14.24-22.9-12.54
	c-7.74,1.34-13.78,5.83-20.06,10.12c-5.17,3.53-6.65,7.83-6.58,14.01c0.33,29.42,0.15,58.84,0.15,88.26c0,0.93,0.18,1.93-0.12,2.76
	c-0.26,0.73-1.04,1.78-1.63,1.81c-6.3,0.34-12.58,0.22-18.57-2.11c-6.94-2.7-9.98-8.15-10.45-15.3c-0.07-1-0.05-2-0.05-3
	c0-32.35,0-64.7,0-97.04c0-4.46,0.33-4.81,4.77-4.4c4.25,0.39,8.56,0.59,12.72,1.46c7.31,1.54,11.66,6.23,12.92,13.68
	C381.69,80.07,381.91,80.59,382.19,81.52z"/>
<path d="M1342.75,152.03c-2.02,3.9-3.78,7.96-6.11,11.67c-10.44,16.65-25.83,24.99-45.23,25.14c-17.59,0.14-32.71-6.68-44.42-19.79
	c-9.96-11.15-14.95-24.56-15.69-39.63c-0.55-11.18,0.82-21.94,5.04-32.29c5.73-14.06,15.82-23.92,29.68-29.88
	c14.26-6.14,28.93-7.19,43.98-3.23c19.81,5.21,33.98,20.96,36.75,41.03c0.46,3.33,0.1,3.78-3.26,3.79
	c-26.27,0.01-52.54,0-78.81,0.01c-4,0-4.49,0.45-4.14,4.21c1.21,12.82,4.75,24.87,12.85,35.11c8.62,10.9,19.67,17.49,33.83,18.67
	c9.03,0.75,17.42-0.75,24.87-5.87c3.71-2.55,6.87-5.91,10.28-8.91C1342.51,152.05,1342.63,152.04,1342.75,152.03z M1287.84,106.31
	c7.99,0,15.99-0.05,23.98,0.03c2.18,0.02,3.66-0.75,4.2-2.81c0.91-3.43,1.86-6.88,2.41-10.38c2.39-15.15-10.34-30-28.08-28.99
	c-10.91,0.63-18.45,6.52-23.58,15.83c-3.9,7.08-5.43,14.82-6.09,22.79c-0.25,3.06,0.05,3.51,3.18,3.52
	C1271.86,106.32,1279.85,106.31,1287.84,106.31z"/>
<path d="M842.35,92.88c-3.78-4.44-7.33-9.08-11.37-13.25c-8.23-8.48-18.41-13.45-30.08-15.07c-5.66-0.78-11.39-0.8-16.89,1.41
	c-3.21,1.29-5.94,3.17-7.87,6.03c-3.03,4.49-3.04,10,0.55,14.37c2.78,3.38,5.94,6.68,9.53,9.12c9.44,6.42,19.21,12.34,28.84,18.48
	c8.86,5.64,17.73,11.32,25.19,18.77c8.26,8.25,13.29,17.86,10.64,30.08c-2.31,10.68-9.31,17.18-18.99,21.29
	c-8.97,3.81-18.39,5.05-28.05,5c-11.36-0.06-22.54-1.44-33.23-5.39c-5.33-1.97-10.43-4.59-15.56-7.07
	c-0.88-0.43-1.93-1.64-1.95-2.51c-0.17-6.4-0.09-12.82,0.36-19.43c0.41,0.59,0.83,1.18,1.23,1.78c9,13.69,20.64,23.95,36.77,28.4
	c8.36,2.31,16.75,2.51,25.18,0.37c7.16-1.81,11.77-6.37,11.96-12.26c0.19-5.66-2.29-10.36-6.06-14.43
	c-6.68-7.21-14.92-12.37-23.17-17.49c-10.86-6.74-21.83-13.31-31.75-21.44c-4.9-4.02-8.92-8.8-11.86-14.48
	c-6.2-11.98-1.5-29.82,12.6-37.07c7.67-3.95,15.83-5.81,24.28-6.28c13.1-0.72,25.94,1.07,38.33,5.49c3.22,1.14,6.32,2.65,9.38,4.17
	c0.83,0.42,1.87,1.5,1.89,2.3C842.42,80.24,842.35,86.72,842.35,92.88z"/>
<path d="M1442.45,90.34c-0.83-1.3-1.61-2.64-2.49-3.91c-11.33-16.28-26.56-25.4-46.73-25.09c-5.62,0.08-10.8,1.81-14.88,6.07
	c-4.47,4.66-4.73,11.47-0.71,16.57c4.65,5.9,10.79,9.92,16.94,13.96c13.37,8.76,27.52,16.31,40.09,26.31
	c6.59,5.23,12.26,11.18,15.47,19.07c5.59,13.77-0.06,28.88-13.2,35.85c-8.1,4.3-16.77,6.31-25.87,6.87
	c-14,0.85-27.67-0.75-40.85-5.59c-4.93-1.81-9.63-4.3-14.36-6.63c-0.82-0.4-1.78-1.56-1.8-2.39c-0.15-6.34-0.08-12.68,0.36-19.25
	c0.72,1.07,1.45,2.14,2.17,3.2c5.94,8.75,13.2,16.16,22.53,21.27c11.79,6.46,24.28,9.07,37.61,5.88c1.86-0.44,3.7-1.14,5.4-2.01
	c5.92-3.06,8.36-8.66,6.72-15.12c-0.94-3.69-2.89-6.78-5.46-9.56c-6.32-6.85-14.11-11.74-21.85-16.77
	c-10.95-7.11-21.92-14.23-32.53-21.82c-6.21-4.44-10.86-10.5-13.64-17.79c-4.13-10.82,0.37-25.1,9.86-31.74
	c7.42-5.19,15.76-7.66,24.64-8.43c15.75-1.37,31.05,0.63,45.75,6.6c7.38,3,7.37,3.01,7.37,10.97c0,3.71,0.01,7.43-0.01,11.14
	c0,0.75-0.07,1.49-0.11,2.24C1442.73,90.27,1442.59,90.3,1442.45,90.34z"/>
<path d="M1225.98,152.64c-2.42,4.42-4.52,9.05-7.31,13.22c-7.55,11.25-18.05,18.64-31.24,21.72c-14.64,3.42-28.63,1.16-41.83-6.04
	c-9.93-5.41-17.57-13.15-23.09-22.93c-4.7-8.32-7.32-17.39-7.97-26.9c-0.7-10.19,0.12-20.26,3.46-30.02
	c6.17-18.02,18.2-30.2,36.19-36.42c11.81-4.09,23.92-4.31,36.17-2.45c8.68,1.31,16.95,3.86,24.91,7.54
	c2.93,1.36,4.35,3.12,4.16,6.56c-0.3,5.4-0.08,10.82-0.08,16.24c-0.18,0.08-0.37,0.15-0.55,0.23c-0.59-0.97-1.17-1.95-1.76-2.92
	c-6.07-9.91-13.97-17.85-24.66-22.73c-8.43-3.85-17.16-4.9-26.05-1.9c-9.68,3.26-15.47,10.59-18.9,19.75
	c-6.46,17.26-4.98,34.34,2.07,51.12c3.86,9.19,9.75,16.89,18.05,22.35c14.24,9.37,29.38,11.18,45.14,3.91
	c5.15-2.38,8.94-6.52,12.55-10.79C1225.48,152.32,1225.73,152.48,1225.98,152.64z"/>
<path d="M280.87,65.68c2.59,0.01,3.93,1.9,5.88,5.07c9.87,16.1,1.05,30-5.15,46.42c-7.41,19.62-14.72,39.01-22.1,58.51
	c-1.39,3.67-3.33,6.95-6.88,9c-5.58,3.22-11.29,2.18-14.73-3.22c-2.48-3.89-4.5-8.1-6.46-12.3c-12.3-26.32-24.52-52.67-36.78-79.01
	c-3.49-7.51-7.04-14.99-10.56-22.48c-1.38-2.92-1.14-3.39,2.02-3.34c6.85,0.1,13.7,0.17,20.54,0.43c5.99,0.23,10.82,2.83,13.64,8.21
	c4.23,8.09,8.25,16.3,12.24,24.52c4.09,8.41,8.04,16.89,12.09,25.31l16.51,34.02l0.43,0.9l23.07-58.6
	c3.13-8.41,0.94-20.13-7.93-27.37c-1.86-1.52-7.7-6.02-7.7-6.02L280.87,65.68z"/>
<path d="M262.2,158.89"/>
<path d="M1067.9,172.72c-2.92,1.88-5.76,3.89-8.76,5.63c-9.04,5.23-18.59,9.13-29.04,10.38c-9.86,1.18-19.23-0.08-27.48-6.23
	c-15.75-11.74-17.46-37.76,1.92-49.78c7.41-4.6,15.44-7.66,23.51-10.74c9.39-3.58,18.95-6.89,27.95-11.31
	c9.02-4.43,15.54-11.56,17.4-22.01c1.94-10.92-4.37-20.88-15.17-23.39c-14.84-3.45-27.33,0.94-36.97,12.55
	c-4.3,5.18-7.62,11.17-11.37,16.8c-0.27,0.4-0.51,0.83-1.05,1.7c-0.12-1.07-0.25-1.66-0.25-2.24c-0.01-5.36,0.05-10.71-0.03-16.07
	c-0.03-2.03,0.77-3.26,2.49-4.31c23-13.99,47.19-15.41,72.24-6.75c5.67,1.96,10.9,4.94,14.71,9.92c5.77,7.52,4.57,15.51-3.2,20.91
	c-5.88,4.09-12.6,6.32-19.16,8.93c-10.47,4.16-21.09,8.02-31.33,12.7c-7.5,3.42-14.08,8.35-18.4,15.81
	c-8.71,15.07-0.83,34.35,15.95,38.76c8.13,2.14,16.11,1.72,23.98-1.23c0.47-0.18,0.93-0.36,1.4-0.52c0.12-0.04,0.27,0.03,0.4,0.05
	C1067.73,172.42,1067.82,172.57,1067.9,172.72z"/>
<path d="M1111.16,182.65c-1.47,0.95-2.87,2.04-4.42,2.84c-5.73,2.96-11.86,4.24-18.26,3.39c-10.74-1.43-15.04-10.17-14.67-18.92
	c0.03-0.8,0.66-1.79,1.32-2.3c12.32-9.72,19.25-22.92,24.27-37.37c0.29-0.84,0.68-1.64,1.02-2.46c0.25,0.01,0.49,0.01,0.74,0.02
	c0.11,0.96,0.33,1.92,0.33,2.89c0.02,12.86-0.01,25.71,0.04,38.57c0.01,1.99,0.16,4.01,0.54,5.96c0.83,4.26,3.15,6.19,7.48,6.51
	c0.47,0.04,0.93,0.18,1.4,0.27C1111.02,182.23,1111.09,182.44,1111.16,182.65z"/>
<path d="M329.22,43.85c0.03,8.38-5.77,14.14-14.18,14.07c-7.98-0.06-13.57-5.79-13.55-13.87c0.03-8.19,5.61-13.82,13.75-13.85
	C323.43,30.17,329.19,35.8,329.22,43.85z"/>
<path d="M173.02,43.85c0.03,8.38-5.77,14.14-14.18,14.07c-7.98-0.06-13.57-5.79-13.55-13.87c0.03-8.19,5.61-13.82,13.75-13.85
	C167.23,30.17,172.99,35.8,173.02,43.85z"/>
<path d="M182.66,181.08c-1.47,0.95-2.87,2.04-4.42,2.84c-5.73,2.96-11.86,4.24-18.26,3.39c-10.48-1.39-14.82-9.74-14.68-18.27
	c0-0.22,0.01-76.44,0.02-76.66c0.03-0.8,0.6-1.88,1.32-2.3c4.46-2.6,18.41-10.95,24.27-24.37c0.35-0.81,0.68-1.64,1.02-2.46
	c0.25,0.01,0.49,0.01,0.74,0.02c0.11,0.96,0.33,1.92,0.33,2.89c0-0.14-0.05,75.71,0.04,101.57c0.01,1.99,0.16,4.01,0.54,5.96
	c0.83,4.26,3.15,6.19,7.48,6.51c0.47,0.04,0.93,0.18,1.4,0.27C182.52,180.67,182.59,180.87,182.66,181.08z"/>
<path d="M338.86,181.08c-1.47,0.95-2.87,2.04-4.42,2.84c-5.73,2.96-11.86,4.24-18.26,3.39c-10.48-1.39-14.82-9.74-14.68-18.27
	c0-0.22,0.01-76.44,0.02-76.66c0.03-0.8,0.6-1.88,1.32-2.3c4.46-2.6,18.41-10.95,24.27-24.37c0.35-0.81,0.68-1.64,1.02-2.46
	c0.25,0.01,0.49,0.01,0.74,0.02c0.11,0.96,0.33,1.92,0.33,2.89c0-0.14-0.05,75.71,0.04,101.57c0.01,1.99,0.16,4.01,0.54,5.96
	c0.83,4.26,3.15,6.19,7.48,6.51c0.47,0.04,0.93,0.18,1.4,0.27C338.72,180.67,338.79,180.87,338.86,181.08z"/>
</svg>
